<?xml version="1.0" encoding="iso-8859-1"?><svg version="1.1" id="Layer_1" xmlns="http://www.w3.org/2000/svg" xmlns:xlink="http://www.w3.org/1999/xlink" x="0px" y="0px" viewBox="0 0 334.096 325.333" style="enable-background:new 0 0 334.096 325.333;" xml:space="preserve"><path id="XMLID_2_" style="fill-rule:evenodd;clip-rule:evenodd;fill:#181616;" d="M168.362,4.455 C78.416,4.455,5.477,77.385,5.477,167.36c0,71.963,46.67,133.018,111.406,154.561c8.145,1.494,11.118-3.535,11.118-7.852 c0-3.867-0.141-14.111-0.22-27.705c-45.312,9.844-54.873-21.836-54.873-21.836C65.501,245.71,54.822,240.7,54.822,240.7 c-14.79-10.107,1.119-9.902,1.119-9.902c16.347,1.152,24.951,16.787,24.951,16.787c14.531,24.893,38.125,17.705,47.407,13.535 c1.48-10.527,5.688-17.705,10.342-21.777c-36.172-4.111-74.199-18.086-74.199-80.508c0-17.783,6.347-32.324,16.767-43.711 c-1.675-4.121-7.265-20.683,1.597-43.11c0,0,13.677-4.38,44.795,16.699c12.993-3.613,26.928-5.42,40.781-5.483 c13.833,0.063,27.769,1.87,40.781,5.483c31.099-21.079,44.751-16.699,44.751-16.699c8.887,22.427,3.296,38.989,1.621,43.11 c10.44,11.387,16.744,25.928,16.744,43.711c0,62.578-38.086,76.348-74.375,80.381c5.849,5.029,11.059,14.971,11.059,30.166 c0,21.777-0.2,39.346-0.2,44.687c0,4.356,2.934,9.424,11.201,7.833c64.673-21.583,111.304-82.598,111.304-154.542 C331.268,77.385,258.328,4.455,168.362,4.455z"/></svg>